<svg t="1556114895244" class="icon" style="" viewBox="0 0 1024 1024" version="1.1" xmlns="http://www.w3.org/2000/svg" p-id="1898" xmlns:xlink="http://www.w3.org/1999/xlink" width="200" height="200"><defs><style type="text/css"></style></defs><path d="M637.44 412.16c-10.24-10.24-25.6-10.24-35.84 0L512 501.76l-89.6-89.6c-10.24-10.24-25.6-10.24-35.84 0-10.24 10.24-10.24 25.6 0 35.84l89.6 89.6-89.6 89.6c-10.24 10.24-10.24 25.6 0 35.84 10.24 10.24 25.6 10.24 35.84 0l89.6-89.6 89.6 89.6c10.24 10.24 25.6 10.24 35.84 0s10.24-25.6 0-35.84L547.84 537.6l89.6-89.6c10.24-10.24 10.24-28.16 0-35.84zM819.2 128H204.8C148.48 128 102.4 174.08 102.4 230.4v614.4c0 56.32 46.08 102.4 102.4 102.4h614.4c56.32 0 102.4-46.08 102.4-102.4V230.4c0-56.32-46.08-102.4-102.4-102.4z m51.2 716.8c0 28.16-23.04 51.2-51.2 51.2H204.8c-28.16 0-51.2-23.04-51.2-51.2V230.4c0-28.16 23.04-51.2 51.2-51.2h614.4c28.16 0 51.2 23.04 51.2 51.2v614.4z" p-id="1899"></path></svg>