<?xml version="1.0" standalone="no"?><!DOCTYPE svg PUBLIC "-//W3C//DTD SVG 1.1//EN" "http://www.w3.org/Graphics/SVG/1.1/DTD/svg11.dtd"><svg t="1556114902871" class="icon" style="" viewBox="0 0 1024 1024" version="1.1" xmlns="http://www.w3.org/2000/svg" p-id="2018" xmlns:xlink="http://www.w3.org/1999/xlink" width="200" height="200"><defs><style type="text/css"></style></defs><path d="M511.175727 162.355715c-192.325283 0-349.669868 157.343561-349.669868 349.669868 0 192.276165 157.344584 349.619726 349.669868 349.619726s349.669868-157.343561 349.669868-349.619726C860.845595 319.699276 703.502034 162.355715 511.175727 162.355715M231.470327 512.024559c0-153.886833 125.890198-279.758612 279.7054-279.758612 62.945611 0 122.361839 20.974707 171.375136 59.46637l-391.670447 391.594723C252.46857 634.386398 231.470327 574.947657 231.470327 512.024559M511.175727 791.729959c-62.952774 0-122.360815-20.973684-171.329087-59.438741l391.617236-391.617236c38.465057 48.940642 59.416228 108.407012 59.416228 171.3516C790.881127 665.862273 665.036977 791.729959 511.175727 791.729959" p-id="2019"></path></svg>